<svg xmlns="http://www.w3.org/2000/svg" xmlns:xlink="http://www.w3.org/1999/xlink" viewBox="0 0 138.26 211.45"><defs><style>.cls-1{isolation:isolate;}.cls-2{fill:url(#linear-gradient);}.cls-3{fill:url(#linear-gradient-2);}.cls-4{fill:url(#linear-gradient-3);}.cls-5{fill:none;}.cls-6,.cls-7,.cls-8{mix-blend-mode:multiply;}.cls-6{fill:url(#linear-gradient-4);}.cls-7{fill:url(#linear-gradient-5);}.cls-8{fill:url(#linear-gradient-6);}.cls-9{font-size:42px;font-family:FuturaPT-Demi, Futura PT;letter-spacing:0.13em;}.cls-12,.cls-9{fill:#333;font-weight:300;}.cls-10{letter-spacing:0.11em;}.cls-11{letter-spacing:0.13em;}.cls-12{font-size:27px;font-family:FuturaPT-Light, Futura PT;letter-spacing:0.23em;}</style><linearGradient id="linear-gradient" x1="58.66" y1="6.27" x2="121.32" y2="105.38" gradientUnits="userSpaceOnUse"><stop offset="0" stop-color="#a12700"/><stop offset="1" stop-color="#ff4b11"/></linearGradient><linearGradient id="linear-gradient-2" x1="16.52" y1="108.62" x2="129.4" y2="89.95" gradientUnits="userSpaceOnUse"><stop offset="0" stop-color="#d43400"/><stop offset="1" stop-color="#a12700"/></linearGradient><linearGradient id="linear-gradient-3" x1="68.53" y1="-0.03" x2="20.58" y2="116.97" xlink:href="#linear-gradient-2"/><linearGradient id="linear-gradient-4" x1="59.94" y1="7.92" x2="120.38" y2="104.51" gradientUnits="userSpaceOnUse"><stop offset="0" stop-color="#a12700"/><stop offset="0.09" stop-color="#ae2c02" stop-opacity="0.86"/><stop offset="0.31" stop-color="#cb3708" stop-opacity="0.55"/><stop offset="0.52" stop-color="#e2400c" stop-opacity="0.31"/><stop offset="0.71" stop-color="#f2460f" stop-opacity="0.14"/><stop offset="0.87" stop-color="#fc4a10" stop-opacity="0.04"/><stop offset="1" stop-color="#ff4b11" stop-opacity="0"/></linearGradient><linearGradient id="linear-gradient-5" x1="129.68" y1="90.05" x2="17.98" y2="108.12" xlink:href="#linear-gradient-4"/><linearGradient id="linear-gradient-6" x1="19.65" y1="116.8" x2="69.87" y2="1.25" xlink:href="#linear-gradient-4"/></defs><title>Asset 1</title><g class="cls-1"><g id="Layer_2" data-name="Layer 2"><g id="Layer_3" data-name="Layer 3"><path class="cls-2" d="M138.26,69.12A68.81,68.81,0,0,1,131.51,99,63.61,63.61,0,0,0,37.19,55.4,63.5,63.5,0,0,1,69,.48s.61-.36.84-.48A69.11,69.11,0,0,1,138.26,69.12Z"/><path class="cls-3" d="M131.51,99A69.15,69.15,0,0,1,18.67,116.38a63.59,63.59,0,0,0,82.1-60.84V55.4A63.68,63.68,0,0,1,131.51,99Z"/><path class="cls-4" d="M69,110.61a63.75,63.75,0,0,1-50.31,5.77A69.13,69.13,0,0,1,68.14,0L69,.48A63.5,63.5,0,0,0,37.19,55.4v.14A63.52,63.52,0,0,0,69,110.61Z"/><path class="cls-5" d="M100.77,55.4v.14A63.54,63.54,0,0,1,69,110.61,63.52,63.52,0,0,1,37.19,55.54V55.4a63.7,63.7,0,0,1,63.58,0Z"/><path class="cls-6" d="M138.26,69.12A68.81,68.81,0,0,1,131.51,99,63.61,63.61,0,0,0,37.19,55.4,63.5,63.5,0,0,1,69,.48s.61-.36.84-.48A69.11,69.11,0,0,1,138.26,69.12Z"/><path class="cls-7" d="M131.51,99A69.15,69.15,0,0,1,18.67,116.38a63.59,63.59,0,0,0,82.1-60.84V55.4A63.68,63.68,0,0,1,131.51,99Z"/><path class="cls-8" d="M69,110.61a63.75,63.75,0,0,1-50.31,5.77A69.13,69.13,0,0,1,68.14,0L69,.48A63.5,63.5,0,0,0,37.19,55.4v.14A63.52,63.52,0,0,0,69,110.61Z"/><text class="cls-9" transform="translate(14.24 178.63)">PC<tspan class="cls-10" x="59.05" y="0">S</tspan><tspan class="cls-11" x="86.27" y="0">S</tspan></text><text class="cls-12" transform="translate(16.24 204.7)">Limited</text></g></g></g></svg>