<svg xmlns="http://www.w3.org/2000/svg" xmlns:xlink="http://www.w3.org/1999/xlink" width="95.568" height="95.568" viewBox="0 0 95.568 95.568"><defs><style>.a{fill:#fff;}.b{fill:#ff4b11;}.c{filter:url(#a);}</style><filter id="a" x="0" y="0" width="95.568" height="95.568" filterUnits="userSpaceOnUse"><feOffset dx="4" dy="8" input="SourceAlpha"/><feGaussianBlur stdDeviation="5" result="b"/><feFlood flood-opacity="0.161"/><feComposite operator="in" in2="b"/><feComposite in="SourceGraphic"/></filter></defs><g transform="translate(-1431 -1739)"><g class="c" transform="matrix(1, 0, 0, 1, 1431, 1739)"><circle class="a" cx="32.784" cy="32.784" r="32.784" transform="translate(11 7)"/></g><g transform="translate(1461.176 1758.371)"><g transform="translate(0)"><path class="b" d="M110.023,32.656a.59.59,0,0,0-.59.59V38.8a.326.326,0,0,1-.326.326h-3.174V27.5a.59.59,0,1,0-1.181,0V39.123H98.361l1.853-2.039a1.058,1.058,0,0,0,.255-.849l0-.018L98.7,25.789l.476-.716a1.339,1.339,0,0,0,.845.367,1.034,1.034,0,0,0,.925-.572h0l1.862-3.731,4.241,1.642a4.091,4.091,0,0,1,2.381,3.718v3.993a.59.59,0,1,0,1.181,0V26.5a5.269,5.269,0,0,0-3.116-4.812l-.011,0-7.058-2.734V17.292a5.532,5.532,0,0,0,2.094-3.639,2.556,2.556,0,0,0,1.5-.612,2.506,2.506,0,0,0,.262-3.537V7.317a7.317,7.317,0,1,0-14.634,0V9.561a2.371,2.371,0,0,0-.609,1.58,2.5,2.5,0,0,0,.871,1.9,2.554,2.554,0,0,0,1.5.612,5.473,5.473,0,0,0,2.213,3.726v1.568l-7.051,2.733-.011,0A5.269,5.269,0,0,0,83.447,26.5V38.8A1.509,1.509,0,0,0,84.954,40.3h5.625a.59.59,0,1,0,0-1.181h-1.27V27.5a.59.59,0,1,0-1.181,0V39.123H84.954a.326.326,0,0,1-.326-.326V26.5a4.091,4.091,0,0,1,2.381-3.718l4.238-1.643,1.862,3.731a1.034,1.034,0,0,0,.925.572,1.338,1.338,0,0,0,.845-.367l.476.716L93.589,36.217l0,.018a1.059,1.059,0,0,0,.255.849L95.7,39.123H93.334a.59.59,0,1,0,0,1.181h15.772a1.509,1.509,0,0,0,1.507-1.507V33.246A.591.591,0,0,0,110.023,32.656ZM101.7,20.708l-1.736,3.479L97.881,22.7l2.144-2.646Zm-3.49,3.681-.45.678H96.292l-.45-.678,1.186-.843Zm-3.408-5.251v-1.1a5.99,5.99,0,0,0,2.232.423A5.543,5.543,0,0,0,99.246,18v1.147l-2.218,2.738Zm8.906-8a1.323,1.323,0,0,1-.46,1,1.375,1.375,0,0,1-.682.314V9.824A1.336,1.336,0,0,1,103.712,11.142ZM91.363,12.459a1.334,1.334,0,0,1-1.141-1.318,1.4,1.4,0,0,1,1.141-1.288Zm.032-3.809a2.919,2.919,0,0,0-.564.127V7.317a6.136,6.136,0,1,1,12.272,0v1.42a2.625,2.625,0,0,0-.532-.1c0-.57,0-.46-1.859-2.463a1.05,1.05,0,0,0-1.341-.163A11.383,11.383,0,0,1,92.489,7.86,1.05,1.05,0,0,0,91.395,8.651Zm1.149,4.273V9.047a12.616,12.616,0,0,0,7.379-1.99c.855.918,1.318,1.4,1.467,1.582v4.285a4.423,4.423,0,0,1-8.846,0Zm1.544,11.263-1.736-3.479,1.676-.649,2.144,2.647Zm.677,12.157,1.709-10.1h1.108l1.709,10.1-2.263,2.489Z" transform="translate(-83.447)"/></g></g></g></svg>