<svg xmlns="http://www.w3.org/2000/svg" width="69.433" height="67.654" viewBox="0 0 69.433 67.654"><defs><style>.a{fill:#ff4b11;}</style></defs><g transform="translate(0 -6.558)"><path class="a" d="M126.513,89.842a3.394,3.394,0,1,0-2.709-1.354l-5.57,7.784a3.381,3.381,0,0,0-3.363.741l-3.713-2.107a3.39,3.39,0,1,0-6.628,0l-3.713,2.107a3.385,3.385,0,1,0,1.007,1.768l3.713-2.107a3.382,3.382,0,0,0,4.615,0l3.713,2.107a3.39,3.39,0,1,0,6.023-1.323l5.57-7.784A3.38,3.38,0,0,0,126.513,89.842Zm0-4.747a1.356,1.356,0,1,1-1.356,1.356A1.358,1.358,0,0,1,126.513,85.1Zm-28,15.754a1.356,1.356,0,1,1,1.356-1.356A1.358,1.358,0,0,1,98.508,100.849Zm9.335-5.3a1.356,1.356,0,1,1,1.356-1.356A1.358,1.358,0,0,1,107.843,95.549Zm9.335,5.3a1.356,1.356,0,1,1,1.356-1.356A1.358,1.358,0,0,1,117.178,100.849Z" transform="translate(-82.219 -66.128)"/><path class="a" d="M56.793,85.8H2.877a.844.844,0,0,1-.843-.843V42.993a.844.844,0,0,1,.843-.843H7.672a1.017,1.017,0,1,0,0-2.034H2.877A2.88,2.88,0,0,0,0,42.993V84.954a2.88,2.88,0,0,0,2.877,2.877H9.89v2.238A2.315,2.315,0,0,0,12.2,92.382H22.383l-4.792,9.357a1.017,1.017,0,1,0,1.81.927l5.268-10.284H35.914l5.268,10.284a1.017,1.017,0,1,0,1.81-.927L38.2,92.382H48.38a2.315,2.315,0,0,0,2.313-2.313V87.831h6.1a1.017,1.017,0,0,0,0-2.034Zm-8.135,4.273a.279.279,0,0,1-.278.278H12.2a.279.279,0,0,1-.278-.278V87.831H48.659Z" transform="translate(0 -29.007)"/><path class="a" d="M80.088,13.143h45.965a.844.844,0,0,1,.843.843v9.671a1.017,1.017,0,1,0,2.034,0V13.986a2.88,2.88,0,0,0-2.877-2.877H104.284v-2a2.555,2.555,0,0,0-2.552-2.552H95.546A2.555,2.555,0,0,0,92.994,9.11v2H80.088a1.017,1.017,0,0,0,0,2.034ZM95.029,9.11a.518.518,0,0,1,.518-.517h6.186a.518.518,0,0,1,.518.517v2H95.029v-2Z" transform="translate(-68.348 0)"/><path class="a" d="M98.419,267.576a1.017,1.017,0,0,0-1.017,1.017v8.987a1.017,1.017,0,0,0,1.017,1.017h4.126a1.017,1.017,0,0,0,1.017-1.017v-8.987a1.017,1.017,0,0,0-1.017-1.017Zm3.109,8.987H99.436V269.61h2.092Z" transform="translate(-84.193 -225.621)"/><path class="a" d="M167.254,229.248a1.017,1.017,0,0,0-1.017,1.017V244.45a1.017,1.017,0,0,0,1.017,1.017h4.126a1.017,1.017,0,0,0,1.017-1.017V230.265a1.017,1.017,0,0,0-1.017-1.017Zm3.109,14.185h-2.092V231.282h2.092Z" transform="translate(-143.693 -192.491)"/><path class="a" d="M236.09,267.576a1.017,1.017,0,0,0-1.017,1.017v8.987a1.017,1.017,0,0,0,1.017,1.017h4.126a1.017,1.017,0,0,0,1.017-1.017v-8.987a1.017,1.017,0,0,0-1.017-1.017Zm3.109,8.987h-2.092V269.61H239.2Z" transform="translate(-203.195 -225.621)"/><path class="a" d="M304.926,311.832a1.017,1.017,0,0,0-1.017,1.017v2.986a1.017,1.017,0,0,0,1.017,1.017h4.126a1.017,1.017,0,1,0,0-2.034h-3.109v-1.969A1.017,1.017,0,0,0,304.926,311.832Z" transform="translate(-262.696 -263.875)"/><path class="a" d="M324.37,176.959l-5.835-10.107a13.3,13.3,0,1,0-13.151,3.753,13.366,13.366,0,0,0,3.462.459,13.127,13.127,0,0,0,2.994-.346l5.834,10.107a3.866,3.866,0,1,0,6.7-3.866Zm-18.46-8.318a11.26,11.26,0,1,1,8.544-1.125A11.186,11.186,0,0,1,305.91,168.641Zm16.028,11.838a1.834,1.834,0,0,1-2.5-.67l-5.613-9.724a13.35,13.35,0,0,0,3.171-1.833l5.614,9.724a1.83,1.83,0,0,1-.67,2.5Z" transform="translate(-255.455 -119.213)"/><path class="a" d="M341.183,183.768a9.625,9.625,0,0,0-.482-6.973,1.017,1.017,0,1,0-1.84.867,7.618,7.618,0,1,1-2.3-2.838,1.017,1.017,0,1,0,1.227-1.622,9.658,9.658,0,1,0,3.391,10.566Z" transform="translate(-278.593 -142.351)"/></g></svg>