<svg xmlns="http://www.w3.org/2000/svg" width="82.166" height="85" viewBox="0 0 82.166 85"><defs><style>.a{fill:#ff4b11;}</style></defs><g transform="translate(-0.469)"><path class="a" d="M239.567,227.586l-4.443-1.111a19.241,19.241,0,0,0-1.472-3.542L236.01,219a1.418,1.418,0,0,0-.212-1.732l-4.422-4.428a1.417,1.417,0,0,0-1.732-.212l-3.929,2.358c-.51-.273-1.034-.526-1.568-.755a19.368,19.368,0,0,0-1.983-.717l-1.111-4.444A1.416,1.416,0,0,0,219.678,208h-6.25a1.417,1.417,0,0,0-1.375,1.074l-1.11,4.444a19.22,19.22,0,0,0-3.542,1.472l-3.929-2.358a1.417,1.417,0,0,0-1.732.212l-4.428,4.422A1.417,1.417,0,0,0,197.1,219l2.358,3.929a19.174,19.174,0,0,0-1.472,3.542l-4.444,1.11a1.417,1.417,0,0,0-1.074,1.375v6.254a1.416,1.416,0,0,0,1.074,1.374l4.444,1.111a19.213,19.213,0,0,0,1.472,3.542l-2.358,3.929a1.417,1.417,0,0,0,.212,1.732l4.422,4.422a1.417,1.417,0,0,0,1.731.212l3.929-2.358a19.26,19.26,0,0,0,3.542,1.472l1.111,4.443a1.418,1.418,0,0,0,1.375,1.074h6.254a1.417,1.417,0,0,0,1.374-1.074l1.111-4.443a19.26,19.26,0,0,0,3.542-1.472l3.929,2.358a1.418,1.418,0,0,0,1.732-.212l4.421-4.422a1.417,1.417,0,0,0,.213-1.732l-2.358-3.929a19.26,19.26,0,0,0,1.472-3.542l4.443-1.111a1.416,1.416,0,0,0,1.074-1.374V228.96A1.415,1.415,0,0,0,239.567,227.586Zm-1.759,6.521-4.17,1.043a1.415,1.415,0,0,0-1.031,1.026,16.41,16.41,0,0,1-1.811,4.366,1.42,1.42,0,0,0,0,1.454l2.213,3.684-2.852,2.863-3.684-2.213a1.416,1.416,0,0,0-1.454,0,16.422,16.422,0,0,1-4.367,1.811,1.416,1.416,0,0,0-1.026,1.031l-1.052,4.167h-4.041l-1.043-4.17a1.418,1.418,0,0,0-1.026-1.031,16.424,16.424,0,0,1-4.367-1.811,1.419,1.419,0,0,0-1.454,0l-3.684,2.213-2.863-2.852L202.311,242a1.416,1.416,0,0,0,0-1.454,16.423,16.423,0,0,1-1.811-4.367,1.418,1.418,0,0,0-1.032-1.026l-4.167-1.052v-4.04l4.17-1.043A1.416,1.416,0,0,0,200.5,228a16.408,16.408,0,0,1,1.811-4.366,1.417,1.417,0,0,0,0-1.454l-2.213-3.684,2.852-2.863,3.684,2.213a1.416,1.416,0,0,0,1.454,0,16.423,16.423,0,0,1,4.367-1.811A1.418,1.418,0,0,0,213.483,215l1.051-4.167h4.041l1.043,4.17a1.417,1.417,0,0,0,1.025,1.031,16.347,16.347,0,0,1,4.365,1.81,1.419,1.419,0,0,0,1.456,0l3.683-2.213,2.863,2.853-2.213,3.684a1.419,1.419,0,0,0,0,1.454,16.424,16.424,0,0,1,1.811,4.367,1.416,1.416,0,0,0,1.032,1.026l4.167,1.052Zm0,0" transform="translate(-157.995 -171.162)"/><path class="a" d="M275.8,280a11.335,11.335,0,1,0,11.335,11.335A11.334,11.334,0,0,0,275.8,280Zm0,19.836a8.5,8.5,0,1,1,8.5-8.5A8.5,8.5,0,0,1,275.8,299.836Zm0,0" transform="translate(-217.244 -230.41)"/><path class="a" d="M368.469,96H371.3v22.67h-2.834Zm0,0" transform="translate(-302.825 -78.998)"/><path class="a" d="M6.136,72.259v5.667a1.417,1.417,0,0,0,1.417,1.417H37.307V76.51H8.97V72.259h17a1.421,1.421,0,0,0,.633-.142l5.667-2.834a1.417,1.417,0,0,0,0-2.536l-5.667-2.834a1.419,1.419,0,0,0-.633-.156h-17V15.585H62.81a5.668,5.668,0,0,0,5.667-5.667V7.084a1.417,1.417,0,0,0-1.417-1.417H62.81V8.5h2.834V9.918a2.834,2.834,0,0,1-5.667,0V5.667A2.834,2.834,0,0,1,62.81,2.834h5.667a2.834,2.834,0,0,1,2.834,2.834V38.255h2.834V5.667A5.668,5.668,0,0,0,68.478,0H6.136A5.667,5.667,0,0,0,.469,5.667V9.918a5.667,5.667,0,0,0,5.667,5.667V63.758H4.719a4.251,4.251,0,1,0,0,8.5ZM3.3,9.918V5.667A2.834,2.834,0,0,1,6.136,2.834H57.93a5.607,5.607,0,0,0-.787,2.834V9.918a5.607,5.607,0,0,0,.787,2.834H6.136A2.834,2.834,0,0,1,3.3,9.918ZM28.471,68.009l-2.834,1.417H24.555V66.592h1.082Zm-25.168,0a1.417,1.417,0,0,1,1.417-1.417h17v2.834h-17A1.417,1.417,0,0,1,3.3,68.009Zm0,0" transform="translate(0)"/><path class="a" d="M.469,120H3.3v28.337H.469Zm0,0" transform="translate(0 -98.747)"/><path class="a" d="M114.508,114.827v-2.834H96.089a1.417,1.417,0,0,0-1,.415L92.5,115a15.534,15.534,0,0,0-20.182,1.559,1.417,1.417,0,0,0,0,2l10.019,10.019a1.417,1.417,0,0,0,1,.418H97.506a1.417,1.417,0,0,0,1.417-1.417,15.519,15.519,0,0,0-4.291-10.709l2.044-2.043Zm-18.5,11.335H83.924l-8.547-8.547a12.709,12.709,0,0,1,15.091-.587l-3.882,3.882,2,2,4.046-4.046A12.7,12.7,0,0,1,96.009,126.161Zm0,0" transform="translate(-58.782 -92.157)"/><path class="a" d="M328.469,112H331.3v2.834h-2.834Zm0,0" transform="translate(-269.909 -92.164)"/><path class="a" d="M88.469,232H91.3v2.834H88.469Zm0,0" transform="translate(-72.415 -190.911)"/><path class="a" d="M120.469,232h14.169v2.834H120.469Zm0,0" transform="translate(-98.747 -190.911)"/><path class="a" d="M72.469,264h22.67v2.834H72.469Zm0,0" transform="translate(-59.248 -217.244)"/><path class="a" d="M248.469,144H251.3v2.834h-2.834Zm0,0" transform="translate(-204.078 -118.497)"/><path class="a" d="M280.469,144H291.8v2.834H280.469Zm0,0" transform="translate(-230.41 -118.497)"/><path class="a" d="M248.469,176h17v2.834h-17Zm0,0" transform="translate(-204.078 -144.829)"/><path class="a" d="M72.469,296H90.888v2.834H72.469Zm0,0" transform="translate(-59.248 -243.577)"/></g></svg>