<svg xmlns="http://www.w3.org/2000/svg" width="68" height="68" viewBox="0 0 68 68"><defs><style>.a{fill:#ff4b11;}</style></defs><g transform="translate(-1 -1)"><path class="a" d="M59.984,12.633a6.581,6.581,0,1,0-8.419,0A7.684,7.684,0,0,0,47,19.645v6.581a1.1,1.1,0,0,0,1.1,1.1H63.452a1.1,1.1,0,0,0,1.1-1.1V19.645A7.684,7.684,0,0,0,59.984,12.633Zm-3.165,5.761-1.044,2.088L54.73,18.395l.847-4.234h.395Zm-1.044-15.2a4.369,4.369,0,0,1,3.511,1.783,15.527,15.527,0,0,1-7.023,0A4.372,4.372,0,0,1,55.774,3.194Zm-4.332,3.84a17.4,17.4,0,0,0,4.332.547,17.4,17.4,0,0,0,4.332-.547,4.488,4.488,0,0,1,.055.547,4.387,4.387,0,1,1-8.774,0A4.49,4.49,0,0,1,51.442,7.033Zm10.913,18.1H49.194V19.645A5.479,5.479,0,0,1,53.3,14.358l-.8,3.975a1.092,1.092,0,0,0,.094.706l2.194,4.387a1.1,1.1,0,0,0,1.963,0l2.194-4.387a1.091,1.091,0,0,0,.094-.706l-.8-3.975a5.479,5.479,0,0,1,4.106,5.288Z" transform="translate(4.452)"/><path class="a" d="M2.1,27.323H17.452a1.1,1.1,0,0,0,1.1-1.1V19.645a7.684,7.684,0,0,0-4.565-7.012,6.581,6.581,0,1,0-8.419,0A7.684,7.684,0,0,0,1,19.645v6.581a1.1,1.1,0,0,0,1.1,1.1Zm8.722-8.928L9.774,20.483,8.73,18.395l.847-4.234h.395ZM9.774,3.194a4.369,4.369,0,0,1,3.511,1.783,15.527,15.527,0,0,1-7.023,0A4.372,4.372,0,0,1,9.774,3.194ZM5.442,7.033a17.4,17.4,0,0,0,4.332.547,17.4,17.4,0,0,0,4.332-.547,4.49,4.49,0,0,1,.055.547,4.387,4.387,0,0,1-8.774,0A4.49,4.49,0,0,1,5.442,7.033ZM3.194,19.645A5.479,5.479,0,0,1,7.3,14.358l-.794,3.976a1.092,1.092,0,0,0,.094.706l2.194,4.387a1.1,1.1,0,0,0,1.962,0l2.194-4.387a1.091,1.091,0,0,0,.094-.706l-.8-3.975a5.479,5.479,0,0,1,4.106,5.288v5.484H3.194Z" transform="translate(0)"/><path class="a" d="M59.984,50.633a6.581,6.581,0,1,0-8.419,0A7.684,7.684,0,0,0,47,57.645v6.581a1.1,1.1,0,0,0,1.1,1.1H63.452a1.1,1.1,0,0,0,1.1-1.1V57.645A7.684,7.684,0,0,0,59.984,50.633Zm-3.165,5.761-1.044,2.088L54.73,56.395l.847-4.234h.395Zm-1.044-15.2a4.369,4.369,0,0,1,3.511,1.783,15.527,15.527,0,0,1-7.023,0A4.372,4.372,0,0,1,55.774,41.194Zm-4.332,3.84a17.42,17.42,0,0,0,8.665,0,4.488,4.488,0,0,1,.055.547,4.387,4.387,0,1,1-8.774,0A4.49,4.49,0,0,1,51.442,45.033Zm10.913,18.1H49.194V57.645A5.479,5.479,0,0,1,53.3,52.358l-.8,3.975a1.092,1.092,0,0,0,.094.706l2.194,4.387a1.1,1.1,0,0,0,1.963,0l2.194-4.387a1.091,1.091,0,0,0,.094-.706l-.8-3.975a5.479,5.479,0,0,1,4.106,5.288Z" transform="translate(4.452 3.677)"/><path class="a" d="M2.1,65.323H17.452a1.1,1.1,0,0,0,1.1-1.1V57.645a7.684,7.684,0,0,0-4.565-7.012,6.581,6.581,0,1,0-8.419,0A7.684,7.684,0,0,0,1,57.645v6.581a1.1,1.1,0,0,0,1.1,1.1Zm8.722-8.928L9.774,58.483,8.73,56.395l.847-4.234h.395Zm-1.044-15.2a4.369,4.369,0,0,1,3.511,1.783,15.527,15.527,0,0,1-7.023,0A4.372,4.372,0,0,1,9.774,41.194Zm-4.332,3.84a17.42,17.42,0,0,0,8.665,0,4.49,4.49,0,0,1,.055.547,4.387,4.387,0,0,1-8.774,0A4.49,4.49,0,0,1,5.442,45.033ZM3.194,57.645A5.479,5.479,0,0,1,7.3,52.358l-.794,3.976a1.092,1.092,0,0,0,.094.706l2.194,4.387a1.1,1.1,0,0,0,1.962,0l2.194-4.387a1.091,1.091,0,0,0,.094-.706l-.8-3.975a5.479,5.479,0,0,1,4.106,5.288v5.484H3.194Z" transform="translate(0 3.677)"/><path class="a" d="M47.516,36.968V28.194A2.2,2.2,0,0,0,45.323,26H31.065a2.2,2.2,0,0,0-2.194,2.194v1.1H21.194A2.2,2.2,0,0,0,19,31.484v8.774a2.2,2.2,0,0,0,2.194,2.194h2.767l-1.593,3.979a1.1,1.1,0,0,0,1.656,1.3l7.391-5.28h4.036A2.19,2.19,0,0,0,37.539,40.9l4.952,3.541a1.1,1.1,0,0,0,.638.2,1.1,1.1,0,0,0,1.019-1.5l-1.593-3.98h2.767a2.2,2.2,0,0,0,2.194-2.194Zm-12.065,3.29H31.065a1.1,1.1,0,0,0-.637.2L25.8,43.771l.8-2.008a1.1,1.1,0,0,0-1.018-1.5H21.194V31.484H35.452Zm5.484-3.29a1.1,1.1,0,0,0-1.019,1.5l.8,2-3.073-2.2V31.484a2.2,2.2,0,0,0-2.194-2.194H31.065v-1.1H45.323v8.774Z" transform="translate(1.742 2.419)"/><path class="a" d="M23,34h2.194v2.194H23Z" transform="translate(2.129 3.194)"/><path class="a" d="M27,34h5.484v2.194H27Z" transform="translate(2.516 3.194)"/><path class="a" d="M38,31h3.29v2.194H38Z" transform="translate(3.581 2.903)"/><path class="a" d="M33.318,12a23.875,23.875,0,0,0-14.937,5.179L19.739,18.9a21.941,21.941,0,0,1,27.158,0l1.358-1.721A23.871,23.871,0,0,0,33.318,12Z" transform="translate(1.682 1.065)"/><path class="a" d="M11.374,26.667A24.055,24.055,0,0,0,10,34.71a24.333,24.333,0,0,0,.245,3.446l2.172-.311A22.083,22.083,0,0,1,13.442,27.4Z" transform="translate(0.871 2.484)"/><path class="a" d="M16.286,49.531a24.127,24.127,0,0,0,33.321,1.1L48.144,49a21.935,21.935,0,0,1-30.292-1Z" transform="translate(1.479 4.548)"/><path class="a" d="M54.059,38.156A24.333,24.333,0,0,0,54.3,34.71a24.055,24.055,0,0,0-1.374-8.043l-2.067.732a22.078,22.078,0,0,1,1.025,10.446Z" transform="translate(4.825 2.484)"/><path class="a" d="M5.042,26.741A30.769,30.769,0,0,0,4,34.7a31.144,31.144,0,0,0,.335,4.547l2.171-.321A28.906,28.906,0,0,1,6.194,34.7a28.609,28.609,0,0,1,.967-7.393Z" transform="translate(0.29 2.491)"/><path class="a" d="M19.575,56.794l-1.058,1.922a30.755,30.755,0,0,0,29.575,0l-1.058-1.922a28.56,28.56,0,0,1-27.458,0Z" transform="translate(1.695 5.399)"/><path class="a" d="M59.944,40.25a31.145,31.145,0,0,0,.335-4.547,30.769,30.769,0,0,0-1.042-7.961l-2.119.568a28.609,28.609,0,0,1,.967,7.393,29.084,29.084,0,0,1-.31,4.227Z" transform="translate(5.431 2.588)"/><path class="a" d="M33.506,8.194A28.372,28.372,0,0,1,49.346,13l1.221-1.823a30.727,30.727,0,0,0-34.124,0L17.664,13A28.378,28.378,0,0,1,33.506,8.194Z" transform="translate(1.494 0.484)"/></g></svg>