<svg xmlns="http://www.w3.org/2000/svg" width="90" height="90" viewBox="0 0 90 90"><defs><style>.a{fill:#ff4b11;}</style></defs><path class="a" d="M16.268,32.535A16.268,16.268,0,1,0,0,16.268,16.286,16.286,0,0,0,16.268,32.535Zm0-29.02A12.752,12.752,0,1,1,3.516,16.268,12.767,12.767,0,0,1,16.268,3.516Z"/><path class="a" d="M85.757,48.155a1.758,1.758,0,0,0,2.482-2.49l-2.111-2.1v-7.8a1.758,1.758,0,0,0-3.516,0v8.533a1.759,1.759,0,0,0,.517,1.245Z" transform="translate(-68.091 -28.023)"/><path class="a" d="M88.242,171.219H77.423a10.381,10.381,0,0,0-6.27-4.171l-7.728-1.69a11.86,11.86,0,0,0,5.247-9.842v-6.725a11.863,11.863,0,0,0-23.726,0v6.725a11.86,11.86,0,0,0,5.234,9.834l-7.723,1.694c-.33.072-.654.161-.973.264V152.762A1.758,1.758,0,0,0,39.727,151H27.773a1.758,1.758,0,1,0,0,3.516h10.2v24.609H26.016V170.34a5.273,5.273,0,0,0-10.547,0v8.789H3.516V154.52h10.2a1.758,1.758,0,0,0,0-3.516H1.758A1.758,1.758,0,0,0,0,152.762v28.125a1.758,1.758,0,0,0,1.758,1.758H15.469v3.34h-.176a5.455,5.455,0,0,0-5.449,5.449v.879H1.758A1.758,1.758,0,0,0,0,194.07V201.1a1.758,1.758,0,0,0,1.758,1.758H88.242A1.758,1.758,0,0,0,90,201.1V172.977A1.758,1.758,0,0,0,88.242,171.219ZM77.551,192.313H67.5V188.8H86.484v3.516Zm8.933-7.031H67.5v-3.516H86.484Zm0-7.031H67.5v-3.516H86.484ZM48.461,148.792a8.347,8.347,0,0,1,16.669-.654l-4.086-2.4a1.758,1.758,0,0,0-2.238.387,9.322,9.322,0,0,1-7.162,3.343H48.462v-.675Zm0,4.19h3.183a12.825,12.825,0,0,0,8.825-3.505l4.686,2.753v3.286a8.347,8.347,0,0,1-16.694,0v-2.534Zm11.1,14.071-2.78,7.434L54,167.04a11.8,11.8,0,0,0,5.565.013ZM39.727,182.645a1.758,1.758,0,0,0,1.758-1.758v-9.777a6.837,6.837,0,0,1,1.726-.631l7.689-1.687,4.237,11.33a1.758,1.758,0,0,0,3.293,0l4.237-11.331,7.736,1.692a6.843,6.843,0,0,1,1.916.736H65.742a1.758,1.758,0,0,0-1.758,1.758v19.336H37.824v-9.668h1.9Zm-5.418,0v9.668H31.641v-.879a5.455,5.455,0,0,0-5.449-5.449h-.176v-3.34Zm-15.324-12.3a1.758,1.758,0,0,1,3.516,0v15.645H18.984Zm-5.625,21.094a1.936,1.936,0,0,1,1.934-1.934h10.9a1.936,1.936,0,0,1,1.934,1.934v.879H13.359Zm73.125,7.91H3.516v-3.516H86.484Z" transform="translate(0 -112.859)"/><path class="a" d="M108.515,217.515a1.757,1.757,0,1,0,1.243-.515A1.771,1.771,0,0,0,108.515,217.515Z" transform="translate(-89.016 -178.855)"/></svg>