<svg xmlns="http://www.w3.org/2000/svg" width="25.568" height="20.089" viewBox="0 0 25.568 20.089"><defs><style>.a{fill:#ff4b11;}</style></defs><g transform="translate(0 0)"><path class="a" d="M2.454,61.012q.485.342,2.925,2.033t3.738,2.6q.143.1.606.435t.77.542q.307.207.742.464a4.305,4.305,0,0,0,.82.385,2.261,2.261,0,0,0,.713.128H12.8a2.262,2.262,0,0,0,.713-.128,4.309,4.309,0,0,0,.82-.385q.435-.257.742-.464t.77-.542q.464-.336.606-.435,1.312-.913,6.677-4.637a6.778,6.778,0,0,0,1.74-1.755,3.768,3.768,0,0,0,.7-2.154,2.3,2.3,0,0,0-2.283-2.283h-21a2.038,2.038,0,0,0-1.691.742A2.88,2.88,0,0,0,0,57.417a3.333,3.333,0,0,0,.785,1.948A7.082,7.082,0,0,0,2.454,61.012Z" transform="translate(0 -54.82)"/><path class="a" d="M24.141,185.678q-4.679,3.167-7.105,4.922-.813.6-1.32.934a8.147,8.147,0,0,1-1.348.685,4.105,4.105,0,0,1-1.569.35H12.77a4.107,4.107,0,0,1-1.569-.35,8.151,8.151,0,0,1-1.348-.685q-.506-.335-1.32-.934-1.926-1.412-7.091-4.922A7.558,7.558,0,0,1,0,184.437v11.328a2.2,2.2,0,0,0,.671,1.612,2.2,2.2,0,0,0,1.612.671h21a2.29,2.29,0,0,0,2.283-2.283V184.437A7.868,7.868,0,0,1,24.141,185.678Z" transform="translate(0 -177.96)"/></g></svg>