<svg xmlns="http://www.w3.org/2000/svg" width="100" height="100" viewBox="0 0 100 100"><defs><style>.a{fill:#ff4b11;}.b{fill:#fff;}</style></defs><g transform="translate(0 -0.355)"><circle class="a" cx="50" cy="50" r="50" transform="translate(0 0.355)"/><g transform="translate(25.786 31.249)"><path class="b" d="M4.687,66.646q.927.654,5.586,3.883T17.411,75.5q.272.191,1.158.831t1.471,1.036q.586.395,1.417.885a8.222,8.222,0,0,0,1.567.735,4.317,4.317,0,0,0,1.362.245h.055a4.321,4.321,0,0,0,1.363-.245,8.229,8.229,0,0,0,1.567-.735q.831-.491,1.417-.885t1.471-1.036q.885-.641,1.158-.831,2.506-1.743,12.752-8.856a12.944,12.944,0,0,0,3.324-3.351,7.2,7.2,0,0,0,1.335-4.114,4.4,4.4,0,0,0-4.36-4.36H4.359a3.891,3.891,0,0,0-3.229,1.417A5.5,5.5,0,0,0,0,59.779,6.365,6.365,0,0,0,1.5,63.5,13.525,13.525,0,0,0,4.687,66.646Z" transform="translate(0 -54.82)"/><path class="b" d="M46.1,186.807q-8.936,6.049-13.569,9.4-1.553,1.144-2.52,1.785a15.558,15.558,0,0,1-2.575,1.308,7.841,7.841,0,0,1-3,.668h-.055a7.843,7.843,0,0,1-3-.668,15.566,15.566,0,0,1-2.575-1.308q-.967-.64-2.52-1.785-3.679-2.7-13.542-9.4A14.433,14.433,0,0,1,0,184.437v21.634a4.2,4.2,0,0,0,1.281,3.079,4.2,4.2,0,0,0,3.079,1.281H44.469a4.373,4.373,0,0,0,4.359-4.36V184.437A15.025,15.025,0,0,1,46.1,186.807Z" transform="translate(0 -172.067)"/></g></g></svg>