<svg xmlns="http://www.w3.org/2000/svg" width="145.498" height="114.319" viewBox="0 0 145.498 114.319"><defs><style>.a{fill:#fff;}</style></defs><g transform="translate(0 0)"><path class="a" d="M13.965,90.058q2.761,1.948,16.644,11.57t21.273,14.816q.812.569,3.45,2.477t4.384,3.086q1.746,1.176,4.223,2.638a24.5,24.5,0,0,0,4.669,2.19,12.865,12.865,0,0,0,4.06.731h.164a12.875,12.875,0,0,0,4.06-.731,24.521,24.521,0,0,0,4.668-2.19q2.476-1.463,4.222-2.638t4.384-3.086q2.638-1.91,3.451-2.477,7.468-5.2,38-26.388a38.571,38.571,0,0,0,9.9-9.986A21.442,21.442,0,0,0,145.5,67.811,13.1,13.1,0,0,0,132.507,54.82H12.99q-6.251,0-9.621,4.221A16.389,16.389,0,0,0,0,69.6Q0,74.711,4.466,80.68A40.3,40.3,0,0,0,13.965,90.058Z" transform="translate(0 -54.82)"/><path class="a" d="M137.377,191.5q-26.628,18.023-40.433,28.012-4.628,3.409-7.51,5.318a46.375,46.375,0,0,1-7.673,3.9,23.362,23.362,0,0,1-8.93,1.989h-.164a23.37,23.37,0,0,1-8.931-1.989,46.4,46.4,0,0,1-7.673-3.9q-2.882-1.907-7.51-5.318Q37.592,211.475,8.2,191.5A43.017,43.017,0,0,1,0,184.437V248.9a12.507,12.507,0,0,0,3.816,9.176,12.507,12.507,0,0,0,9.175,3.817H132.508A13.03,13.03,0,0,0,145.5,248.9V184.437A44.776,44.776,0,0,1,137.377,191.5Z" transform="translate(0 -147.576)"/></g></svg>