<svg xmlns="http://www.w3.org/2000/svg" width="122.125" height="75.346" viewBox="0 0 122.125 75.346"><defs><style>.a{fill:#ff4b11;}</style></defs><g transform="translate(0.001 -98.057)"><path class="a" d="M61.086,157.3a6.224,6.224,0,0,0-4.913-1.156,6.236,6.236,0,0,0-7.007-5.157,6.307,6.307,0,0,0-1.189.283,6.231,6.231,0,0,0-8.367-4.011,6.242,6.242,0,0,0-10.273-2.49l-6.548-.435,4.013-32.6,7.191.489c.041,0,.081,0,.122,0a1.789,1.789,0,0,0,1.591-.973L38.4,106a3.182,3.182,0,0,1,3.666-1.609l4,1.107a1.789,1.789,0,0,0,.954-3.449l-4-1.107a6.774,6.774,0,0,0-7.8,3.424l-2.158,4.211-5.82-.4.138-1.12a6.549,6.549,0,0,0-5.693-7.292L7.9,98.071a1.789,1.789,0,0,0-.437,3.551l13.784,1.7a2.963,2.963,0,0,1,2.579,3.3l-4.733,38.45a2.968,2.968,0,0,1-3.3,2.579l-13.784-1.7a1.789,1.789,0,0,0-.437,3.551l13.784,1.7a6.534,6.534,0,0,0,6.529-3.339l4.9.326a6.241,6.241,0,0,0,5.536,9.093,6.361,6.361,0,0,0,.867-.06l.055-.009c0,.019,0,.037.006.056a6.234,6.234,0,0,0,6.173,5.383,6.3,6.3,0,0,0,.919-.07,6.227,6.227,0,0,0,6.178,5.444,6.29,6.29,0,0,0,.916-.069c0,.02,0,.04.007.06A6.242,6.242,0,0,0,53.6,173.4a6.356,6.356,0,0,0,.867-.06,6.2,6.2,0,0,0,4.12-2.414l3.7-4.886A6.246,6.246,0,0,0,61.086,157.3Zm-28.391-3.625a2.662,2.662,0,0,1-2.486-4.244l1.363-1.8a2.662,2.662,0,0,1,4.244,3.214l-1.363,1.8A2.645,2.645,0,0,1,32.694,153.678Zm5.125,4.859a2.661,2.661,0,0,1-.515-3.729l1.363-1.8h0l1.2-1.589a2.662,2.662,0,0,1,4.244,3.214l-2.566,3.389A2.665,2.665,0,0,1,37.819,158.537Zm7.1,5.374a2.662,2.662,0,0,1-.515-3.728h0l2.566-3.389h0l.931-1.23a2.662,2.662,0,0,1,4.245,3.213l-3.5,4.619h0A2.665,2.665,0,0,1,44.915,163.911Zm14.525-.027-3.7,4.886a2.662,2.662,0,1,1-4.244-3.214l3.5-4.618,0,0,.2-.265a2.662,2.662,0,1,1,4.243,3.214Z" transform="translate(0)"/><path class="a" d="M242.94,147.512a1.789,1.789,0,0,0-1.994-1.557l-13.784,1.7a2.966,2.966,0,0,1-3.3-2.579l-.141-1.148h0l-.033-.266-4.559-37.037a2.963,2.963,0,0,1,2.579-3.3l13.784-1.7a1.789,1.789,0,1,0-.437-3.551l-13.784,1.7a6.55,6.55,0,0,0-5.739,6.662l-3.476.428L201.289,100.8a8.543,8.543,0,0,0-5-1.067h-.011l-3.24.3a1.789,1.789,0,1,0,.33,3.563l3.249-.3a4.98,4.98,0,0,1,2.913.622l11.16,6.28a1.789,1.789,0,0,0,1.2.283l4.037-.5,2.961,24.053,1.024,8.318-6.439.005a1.788,1.788,0,0,0-1.168.435l-.5.388-16.167-13.934c3.695-1.062,7.216-3.631,10.509-7.675a1.789,1.789,0,1,0-2.774-2.259c-3.68,4.52-7.55,6.847-11.5,6.915-5.757.108-9.987-4.666-10.026-4.71a1.789,1.789,0,0,0-2.773.079l-4.806,6.254a9.309,9.309,0,0,1-10.733,3.055l-.513-.194a1.195,1.195,0,0,1-.611-1.718l12.543-21.588a5.01,5.01,0,0,1,3.864-2.468l7.426-.687a1.789,1.789,0,0,0-.33-3.563l-7.426.687a8.6,8.6,0,0,0-6.628,4.233L159.325,127.2a4.772,4.772,0,0,0,2.44,6.862l.513.194a13.033,13.033,0,0,0,4.611.847,12.867,12.867,0,0,0,10.224-5.069l3.585-4.666a17.667,17.667,0,0,0,10.081,4.41l23.362,20.135a2.076,2.076,0,0,1,.218,2.927l-.91,1.056a3.184,3.184,0,0,1-4.481.329,1.786,1.786,0,0,0-.234-.168l-6.065-5.229a1.789,1.789,0,0,0-2.336,2.71l4.928,4.25-2.248,2.609a3.169,3.169,0,0,1-4.48.331l-.026-.021-5.635-4.859a1.789,1.789,0,0,0-2.336,2.71l4.306,3.713L192.58,162.9a3.181,3.181,0,0,1-2.782,1.083,1.789,1.789,0,1,0-.418,3.553,6.756,6.756,0,0,0,5.911-2.3l2.418-2.808a6.751,6.751,0,0,0,8.015-1.693l2.422-2.811a6.771,6.771,0,0,0,8.013-1.688l.912-1.057a5.653,5.653,0,0,0-.592-7.973l-1.468-1.265,5.367,0A6.536,6.536,0,0,0,227.6,151.2l13.784-1.7A1.789,1.789,0,0,0,242.94,147.512Z" transform="translate(-120.83 0)"/><path class="a" d="M447.251,251.249A5.247,5.247,0,1,0,452.5,256.5,5.253,5.253,0,0,0,447.251,251.249Zm0,6.916a1.669,1.669,0,1,1,1.669-1.669A1.671,1.671,0,0,1,447.251,258.165Z" transform="translate(-336.576 -116.652)"/><path class="a" d="M35.687,256.5a5.247,5.247,0,1,0-5.247,5.247A5.253,5.253,0,0,0,35.687,256.5Zm-6.916,0a1.669,1.669,0,1,1,1.669,1.669A1.671,1.671,0,0,1,28.771,256.5Z" transform="translate(-19.185 -116.652)"/></g></svg>