<svg xmlns="http://www.w3.org/2000/svg" width="100" height="100" viewBox="0 0 100 100"><defs><style>.a{fill:#ff4b11;}.b{fill:#fff;}</style></defs><circle class="a" cx="50" cy="50" r="50"/><g transform="translate(25.786 25.487)"><path class="b" d="M15.5,99.73H5.713a.786.786,0,0,0-.786.786v31.427a.786.786,0,0,0,.786.786H15.5a.786.786,0,0,0,.786-.786V100.516A.786.786,0,0,0,15.5,99.73Z" transform="translate(-4.153 -84.107)"/><path class="b" d="M6.455.341a6.449,6.449,0,1,0,6.45,6.448A6.459,6.459,0,0,0,6.455.341Z" transform="translate(0 -0.341)"/><path class="b" d="M125.711,94.761a11.49,11.49,0,0,0-8.6,3.608V96.328a.786.786,0,0,0-.786-.786h-9.368a.786.786,0,0,0-.786.786v31.427a.786.786,0,0,0,.786.786h9.761a.786.786,0,0,0,.786-.786V112.206c0-5.24,1.423-7.281,5.076-7.281,3.978,0,4.294,3.272,4.294,7.551v15.28a.786.786,0,0,0,.786.786h9.765a.786.786,0,0,0,.786-.786V110.517C138.215,102.726,136.73,94.761,125.711,94.761Z" transform="translate(-89.486 -79.919)"/></g></svg>