<svg xmlns="http://www.w3.org/2000/svg" xmlns:xlink="http://www.w3.org/1999/xlink" viewBox="0 0 138.26 205.02"><defs><style>.cls-1{isolation:isolate;}.cls-2{fill:url(#linear-gradient);}.cls-3{fill:url(#linear-gradient-2);}.cls-4{fill:url(#linear-gradient-3);}.cls-5{fill:none;}.cls-6,.cls-7,.cls-8{mix-blend-mode:multiply;}.cls-6{fill:url(#linear-gradient-4);}.cls-7{fill:url(#linear-gradient-5);}.cls-8{fill:url(#linear-gradient-6);}.cls-9{fill:#fff;}</style><linearGradient id="linear-gradient" x1="58.66" y1="6.27" x2="121.32" y2="105.38" gradientUnits="userSpaceOnUse"><stop offset="0" stop-color="#a12700"/><stop offset="1" stop-color="#ff4b11"/></linearGradient><linearGradient id="linear-gradient-2" x1="16.52" y1="108.62" x2="129.4" y2="89.95" gradientUnits="userSpaceOnUse"><stop offset="0" stop-color="#d43400"/><stop offset="1" stop-color="#a12700"/></linearGradient><linearGradient id="linear-gradient-3" x1="68.53" y1="-0.03" x2="20.58" y2="116.97" xlink:href="#linear-gradient-2"/><linearGradient id="linear-gradient-4" x1="59.94" y1="7.92" x2="120.38" y2="104.51" gradientUnits="userSpaceOnUse"><stop offset="0" stop-color="#a12700"/><stop offset="0.09" stop-color="#ae2c02" stop-opacity="0.86"/><stop offset="0.31" stop-color="#cb3708" stop-opacity="0.55"/><stop offset="0.52" stop-color="#e2400c" stop-opacity="0.31"/><stop offset="0.71" stop-color="#f2460f" stop-opacity="0.14"/><stop offset="0.87" stop-color="#fc4a10" stop-opacity="0.04"/><stop offset="1" stop-color="#ff4b11" stop-opacity="0"/></linearGradient><linearGradient id="linear-gradient-5" x1="129.68" y1="90.05" x2="17.98" y2="108.12" xlink:href="#linear-gradient-4"/><linearGradient id="linear-gradient-6" x1="19.65" y1="116.8" x2="69.87" y2="1.25" xlink:href="#linear-gradient-4"/></defs><title>Asset 6</title><g class="cls-1"><g id="Layer_2" data-name="Layer 2"><g id="Layer_3" data-name="Layer 3"><path class="cls-2" d="M138.26,69.12A68.81,68.81,0,0,1,131.51,99,63.61,63.61,0,0,0,37.19,55.4,63.5,63.5,0,0,1,69,.48s.61-.36.84-.48A69.11,69.11,0,0,1,138.26,69.12Z"/><path class="cls-3" d="M131.51,99A69.15,69.15,0,0,1,18.67,116.38a63.59,63.59,0,0,0,82.1-60.84V55.4A63.68,63.68,0,0,1,131.51,99Z"/><path class="cls-4" d="M69,110.61a63.75,63.75,0,0,1-50.31,5.77A69.13,69.13,0,0,1,68.14,0L69,.48A63.5,63.5,0,0,0,37.19,55.4v.14A63.52,63.52,0,0,0,69,110.61Z"/><path class="cls-5" d="M100.77,55.4v.14A63.54,63.54,0,0,1,69,110.61,63.52,63.52,0,0,1,37.19,55.54V55.4a63.7,63.7,0,0,1,63.58,0Z"/><path class="cls-6" d="M138.26,69.12A68.81,68.81,0,0,1,131.51,99,63.61,63.61,0,0,0,37.19,55.4,63.5,63.5,0,0,1,69,.48s.61-.36.84-.48A69.11,69.11,0,0,1,138.26,69.12Z"/><path class="cls-7" d="M131.51,99A69.15,69.15,0,0,1,18.67,116.38a63.59,63.59,0,0,0,82.1-60.84V55.4A63.68,63.68,0,0,1,131.51,99Z"/><path class="cls-8" d="M69,110.61a63.75,63.75,0,0,1-50.31,5.77A69.13,69.13,0,0,1,68.14,0L69,.48A63.5,63.5,0,0,0,37.19,55.4v.14A63.52,63.52,0,0,0,69,110.61Z"/><path class="cls-9" d="M29.58,152.62c3.15,0,5.34.33,7.4,2.14a8.93,8.93,0,0,1,2.85,6.76,9,9,0,0,1-2.31,6.26c-1.55,1.55-3.86,2.48-7.1,2.48H26.89v10.37H21.43v-28Zm-2.69,12.93h2.23a5.6,5.6,0,0,0,3.57-.88,4.18,4.18,0,0,0,1.51-3.28,3.86,3.86,0,0,0-1.55-3.19,6.57,6.57,0,0,0-3.87-.88H26.89Z"/><path class="cls-9" d="M67.34,179.63a14.52,14.52,0,0,1-6.93,1.63,13.84,13.84,0,0,1-10.25-3.9,14,14,0,0,1-4.49-10.71,14.67,14.67,0,0,1,4.49-11A14.37,14.37,0,0,1,60.45,152a14,14,0,0,1,6.89,1.72v6.38a9,9,0,0,0-6.76-3.15c-5.63,0-9.28,4.62-9.28,9.79a9.28,9.28,0,0,0,9.49,9.58,8.5,8.5,0,0,0,6.55-3.07Z"/><path class="cls-9" d="M89.31,159a5.48,5.48,0,0,0-4.58-2.39c-2.94,0-3.87,1.84-3.87,3.27a2.34,2.34,0,0,0,.89,1.89,9.47,9.47,0,0,0,3.36,1.6,16.45,16.45,0,0,1,5.67,2.81,7.64,7.64,0,0,1,2.39,5.88c0,5.47-4,9.2-9.74,9.2A11.55,11.55,0,0,1,73.76,176l3.57-3.4a6.58,6.58,0,0,0,5.89,3.74c2.47,0,4.32-1.52,4.32-3.87a3.24,3.24,0,0,0-1.09-2.52,12.72,12.72,0,0,0-4.33-2.06,13.4,13.4,0,0,1-4.66-2.43,6.53,6.53,0,0,1-2.23-5.21c0-4.12,2.78-8.23,9-8.23a10.75,10.75,0,0,1,7.94,3.27Z"/><path class="cls-9" d="M114.05,159a5.49,5.49,0,0,0-4.58-2.39c-2.94,0-3.87,1.84-3.87,3.27a2.36,2.36,0,0,0,.88,1.89,9.65,9.65,0,0,0,3.36,1.6,16.41,16.41,0,0,1,5.68,2.81,7.64,7.64,0,0,1,2.39,5.88c0,5.47-4,9.2-9.75,9.2A11.54,11.54,0,0,1,98.5,176l3.57-3.4a6.58,6.58,0,0,0,5.88,3.74c2.48,0,4.33-1.52,4.33-3.87a3.28,3.28,0,0,0-1.09-2.52,12.72,12.72,0,0,0-4.33-2.06,13.4,13.4,0,0,1-4.66-2.43,6.5,6.5,0,0,1-2.23-5.21c0-4.12,2.78-8.23,9-8.23a10.75,10.75,0,0,1,7.94,3.27Z"/><path class="cls-9" d="M20.56,186.7v16.11h5v1.89h-7v-18Z"/><path class="cls-9" d="M34.25,187.88a1.38,1.38,0,1,1-1.38,1.38A1.39,1.39,0,0,1,34.25,187.88Zm1,5.62v11.2H33.28V193.5Z"/><path class="cls-9" d="M44.43,193.5h1.94v1.19a3.25,3.25,0,0,1,2.78-1.46A3.36,3.36,0,0,1,52.2,195a3.74,3.74,0,0,1,3.37-1.81c3.33,0,3.65,2.78,3.65,4.37v7.1H57.28v-6.8c0-1.27-.17-2.94-2-2.94-2.24,0-2.49,2.15-2.49,3.5v6.24H50.85v-6.64c0-.78,0-3.1-2-3.1-2.22,0-2.46,2.29-2.46,3.64v6.1H44.43Z"/><path class="cls-9" d="M69.43,187.88a1.38,1.38,0,1,1-1.38,1.38A1.39,1.39,0,0,1,69.43,187.88Zm1,5.62v11.2H68.46V193.5Z"/><path class="cls-9" d="M81.61,195.28v9.42h-2v-9.42H78.47V193.5h1.19v-4.05h2v4.05h1.94v1.78Z"/><path class="cls-9" d="M100.85,201.84a6.87,6.87,0,0,1-1.37,1.81A5.49,5.49,0,0,1,95.75,205c-2.7,0-5.53-1.7-5.53-5.85,0-3.35,2-5.94,5.42-5.94a5,5,0,0,1,4.24,2.05,7.47,7.47,0,0,1,1.05,4.21H92.22a3.58,3.58,0,0,0,3.56,3.8,3.37,3.37,0,0,0,2.29-.8A4.41,4.41,0,0,0,99.23,201Zm-1.91-4a3.36,3.36,0,0,0-3.3-2.91,3.41,3.41,0,0,0-3.29,2.91Z"/><path class="cls-9" d="M118,185H120V204.7H118v-1.57a4.74,4.74,0,0,1-3.84,1.89c-2.83,0-5.45-2-5.45-5.94s2.59-5.85,5.45-5.85a4.67,4.67,0,0,1,3.84,1.86Zm-7.29,14.06c0,2.41,1.35,4.21,3.67,4.21s3.72-2,3.72-4.18a3.78,3.78,0,0,0-3.72-4.15C112.49,195,110.74,196.36,110.74,199.08Z"/></g></g></g></svg>