<svg xmlns="http://www.w3.org/2000/svg" xmlns:xlink="http://www.w3.org/1999/xlink" width="85.735" height="143" viewBox="0 0 85.735 143"><defs><style>.a{fill:url(#a);}.b{fill:url(#b);}.c{fill:url(#c);}.d{fill:none;}.e{fill:url(#d);}.f{fill:url(#e);}.g{fill:url(#f);}.h,.i{fill:#333;}.h{font-size:27px;font-family:SegoeUI, Segoe UI;letter-spacing:0.134em;}.i{font-size:18px;font-family:SegoeUI-Light, Segoe UI;font-weight:300;letter-spacing:0.227em;}</style><linearGradient id="a" x1="0.212" y1="0.063" x2="0.832" y2="1.065" gradientUnits="objectBoundingBox"><stop offset="0" stop-color="#a12700"/><stop offset="1" stop-color="#ff4b11"/></linearGradient><linearGradient id="b" x1="-0.019" y1="0.642" x2="0.981" y2="0.417" gradientUnits="objectBoundingBox"><stop offset="0" stop-color="#d43400"/><stop offset="1" stop-color="#a12700"/></linearGradient><linearGradient id="c" x1="0.994" y1="0" x2="0.298" y2="0.982" xlink:href="#b"/><linearGradient id="d" x1="0.225" y1="0.08" x2="0.823" y2="1.056" gradientUnits="objectBoundingBox"><stop offset="0" stop-color="#a12700"/><stop offset="0.093" stop-color="#ae2c02" stop-opacity="0.859"/><stop offset="0.311" stop-color="#cb3707" stop-opacity="0.553"/><stop offset="0.518" stop-color="#e13f0b" stop-opacity="0.314"/><stop offset="0.708" stop-color="#f1450e" stop-opacity="0.141"/><stop offset="0.875" stop-color="#fb4910" stop-opacity="0.035"/><stop offset="1" stop-color="#ff4b11" stop-opacity="0"/></linearGradient><linearGradient id="e" x1="0.984" y1="0.418" x2="-0.006" y2="0.636" xlink:href="#d"/><linearGradient id="f" x1="0.285" y1="0.981" x2="1.013" y2="0.011" xlink:href="#d"/></defs><path class="a" d="M1090.864,866.86a42.689,42.689,0,0,1-4.187,18.5,39.441,39.441,0,0,0-58.487-27,39.391,39.391,0,0,1,19.712-34.061c.033-.02.379-.221.52-.294A42.857,42.857,0,0,1,1090.864,866.86Z" transform="translate(-1005.129 -824)"/><path class="b" d="M1079.641,906.407a42.877,42.877,0,0,1-69.97,10.805,39.431,39.431,0,0,0,50.905-37.723V879.4A39.456,39.456,0,0,1,1079.641,906.407Z" transform="translate(-998.094 -845.049)"/><path class="c" d="M1033.772,892.584a39.513,39.513,0,0,1-31.194,3.578A42.866,42.866,0,0,1,1033.255,824c.172.1.345.192.517.294a39.391,39.391,0,0,0-19.712,34.061v.084A39.392,39.392,0,0,0,1033.772,892.584Z" transform="translate(-991 -824)"/><path class="d" d="M1067.612,876.173v.084A39.391,39.391,0,0,1,1047.9,910.4a39.392,39.392,0,0,1-19.712-34.145v-.084a39.474,39.474,0,0,1,39.423,0Z" transform="translate(-1005.129 -841.818)"/><path class="e" d="M1090.864,866.86a42.689,42.689,0,0,1-4.187,18.5,39.441,39.441,0,0,0-58.487-27,39.391,39.391,0,0,1,19.712-34.061c.033-.02.379-.221.52-.294A42.857,42.857,0,0,1,1090.864,866.86Z" transform="translate(-1005.129 -824)"/><path class="f" d="M1079.641,906.407a42.877,42.877,0,0,1-69.97,10.805,39.431,39.431,0,0,0,50.905-37.723V879.4A39.456,39.456,0,0,1,1079.641,906.407Z" transform="translate(-998.094 -845.049)"/><path class="g" d="M1033.772,892.584a39.513,39.513,0,0,1-31.194,3.578A42.866,42.866,0,0,1,1033.255,824c.172.1.345.192.517.294a39.391,39.391,0,0,0-19.712,34.061v.084A39.392,39.392,0,0,0,1033.772,892.584Z" transform="translate(-991 -824)"/><text class="h" transform="translate(7 118)"><tspan x="0" y="0">PCSS</tspan></text><text class="i" transform="translate(3 138)"><tspan x="0" y="0">Limited</tspan></text></svg>