<svg xmlns="http://www.w3.org/2000/svg" width="103.162" height="103.095" viewBox="0 0 103.162 103.095"><defs><style>.a{fill:#fff;}</style></defs><g transform="translate(0 -0.188)"><g transform="translate(0 0.188)"><path class="a" d="M103.113,81.55a4.986,4.986,0,0,1-1.529,4.368L87.059,100.333a8.174,8.174,0,0,1-2.566,1.857,10.6,10.6,0,0,1-3.112.983q-.109,0-.656.055t-1.419.055a50.346,50.346,0,0,1-6.717-.71,51.009,51.009,0,0,1-11.357-3.495A95.336,95.336,0,0,1,46,90.723,113.588,113.588,0,0,1,27.867,75.434,119.673,119.673,0,0,1,15.2,61.018,102.711,102.711,0,0,1,7.117,48.3,68.525,68.525,0,0,1,2.53,37.7,56.2,56.2,0,0,1,.455,29.511a27.05,27.05,0,0,1-.437-5.406q.109-1.966.109-2.184a10.615,10.615,0,0,1,.983-3.112,8.184,8.184,0,0,1,1.857-2.566L17.492,1.717A4.811,4.811,0,0,1,20.987.188a4.074,4.074,0,0,1,2.512.819,7.592,7.592,0,0,1,1.857,2.02L37.041,25.2a5.315,5.315,0,0,1,.546,3.822,6.807,6.807,0,0,1-1.857,3.495l-5.351,5.351a1.821,1.821,0,0,0-.382.71,2.7,2.7,0,0,0-.164.819A19.72,19.72,0,0,0,31.8,44.637a48.121,48.121,0,0,0,4.041,6.389,70.936,70.936,0,0,0,7.754,8.682,72.338,72.338,0,0,0,8.737,7.809,50.454,50.454,0,0,0,6.389,4.1,16.981,16.981,0,0,0,3.931,1.583l1.365.273a2.6,2.6,0,0,0,.71-.164,1.824,1.824,0,0,0,.71-.382l6.225-6.334a6.69,6.69,0,0,1,4.587-1.747A5.706,5.706,0,0,1,79.2,65.5H79.3l21.077,12.45A5.494,5.494,0,0,1,103.113,81.55Z" transform="translate(0 -0.188)"/></g></g></svg>