<svg xmlns="http://www.w3.org/2000/svg" width="68.339" height="67.654" viewBox="0 0 68.339 67.654"><defs><style>.a{fill:#ff4b11;}</style></defs><g transform="translate(-1 -1)"><path class="a" d="M43.568,26.116,42.8,24.052c-.691.259-1.392.5-2.084.705l.637,2.11C42.085,26.644,42.833,26.392,43.568,26.116Z" transform="translate(4.06 2.357)"/><path class="a" d="M37.2,30.8V27.836c.818-.131,1.639-.292,2.454-.479l-.5-2.148c-1.063.247-2.139.441-3.2.581l-.96.127V30.8c0,.3.007.59.022.883l2.2-.112c-.013-.257-.02-.513-.02-.772Z" transform="translate(3.476 2.475)"/><path class="a" d="M19.613,13a6.613,6.613,0,1,0,6.613,6.613A6.62,6.62,0,0,0,19.613,13Zm0,11.022a4.409,4.409,0,1,1,4.409-4.409A4.413,4.413,0,0,1,19.613,24.022Z" transform="translate(1.227 1.227)"/><path class="a" d="M46.958,18.814l-.526-.285-.526.285A29.459,29.459,0,0,1,32.1,22.354L31,22.36v9.121A22.876,22.876,0,0,0,46.055,52.923l.376.136.376-.136A22.876,22.876,0,0,0,61.863,31.481V22.36l-1.1-.007a29.467,29.467,0,0,1-13.809-3.539Zm12.7,12.667A20.665,20.665,0,0,1,46.431,50.71,20.667,20.667,0,0,1,33.2,31.481v-6.95a31.689,31.689,0,0,0,13.228-3.5,31.693,31.693,0,0,0,13.226,3.5Z" transform="translate(3.067 1.792)"/><path class="a" d="M41.451,32.2l-4.865,4.865,7.07,7.07L57.339,30.451l-4.865-4.865L43.656,34.4Zm12.771-1.748L43.656,41.017,39.7,37.065l1.748-1.748,2.2,2.2L52.474,28.7Z" transform="translate(3.638 2.514)"/><path class="a" d="M69.339,19.738H64.016A24.959,24.959,0,0,1,50.1,15.51l-.647-.376-.607.4a24.915,24.915,0,0,1-8.169,3.537V16.661l-2.9-.683A17.52,17.52,0,0,0,36.254,12.3l1.572-2.538L31.914,3.855,29.376,5.427A17.52,17.52,0,0,0,25.7,3.9L25.02,1H16.661l-.683,2.9A17.52,17.52,0,0,0,12.3,5.427L9.766,3.855,3.855,9.766,5.427,12.3A17.52,17.52,0,0,0,3.9,15.977L1,16.661V25.02l2.9.683a17.52,17.52,0,0,0,1.522,3.673L3.855,31.914l5.911,5.911L12.3,36.254a17.52,17.52,0,0,0,3.673,1.522l.683,2.9H25.02l.683-2.9a17.52,17.52,0,0,0,3.673-1.522l.508.314a27.275,27.275,0,0,0,5.23,12.984l-3.708,13.6,5.443-1.361,4.119,6.866,3.7-11.087a26.834,26.834,0,0,0,4.524,1.807l.311.093.311-.091a26.834,26.834,0,0,0,4.524-1.807l3.7,11.087,4.119-6.866,5.443,1.361-3.708-13.6a27.185,27.185,0,0,0,5.456-16.28ZM29.4,33.677l-.576.351a15.3,15.3,0,0,1-4.3,1.782l-.657.161-.591,2.505H18.407l-.59-2.505-.657-.161a15.3,15.3,0,0,1-4.3-1.782l-.576-.351-2.189,1.355L6.65,31.589,8,29.4l-.351-.576a15.3,15.3,0,0,1-1.782-4.3l-.161-.657L3.2,23.274V18.407l2.505-.59.161-.657a15.3,15.3,0,0,1,1.782-4.3L8,12.281l-1.355-2.19,3.442-3.442L12.28,8l.576-.351a15.3,15.3,0,0,1,4.3-1.782l.657-.161L18.407,3.2h4.867l.59,2.505.657.161a15.3,15.3,0,0,1,4.3,1.782L29.4,8l2.189-1.355,3.442,3.442L33.676,12.28l.351.576a15.3,15.3,0,0,1,1.782,4.3l.161.657,2.506.591v1.082a25.244,25.244,0,0,1-3.5.249h-.97a13.234,13.234,0,1,0-4.353,10.947v2.589c0,.194.02.385.024.578Zm.258-13.939v7.693a11.007,11.007,0,1,1,2.148-7.693ZM40.393,63.41,37.9,59.253l-3.375.843,2.314-8.485a27.311,27.311,0,0,0,5.868,4.86ZM64.474,60.1,61.1,59.253,58.6,63.41l-2.312-6.939a27.311,27.311,0,0,0,5.868-4.86Zm2.661-26.823A25.144,25.144,0,0,1,49.5,57.166,25.144,25.144,0,0,1,31.863,33.274V21.943h3.118a27.129,27.129,0,0,0,14.516-4.2,27.1,27.1,0,0,0,14.519,4.2h3.118Z"/></g></svg>