<svg xmlns="http://www.w3.org/2000/svg" width="67.695" height="67.654" viewBox="0 0 67.695 67.654"><defs><style>.a{fill:#ff4b11;}</style></defs><g transform="translate(0 -0.153)"><g transform="translate(5.641 11.395)"><path class="a" d="M46.895,85.179a4.231,4.231,0,0,0-4.231,4.231v11.282h2.821V89.41A1.41,1.41,0,0,1,46.895,88H80.742V85.179Z" transform="translate(-42.664 -85.179)"/></g><g transform="translate(5.641 38.191)"><path class="a" d="M46.895,303.359a1.41,1.41,0,0,1-1.41-1.41v-14.1H42.664v14.1a4.231,4.231,0,0,0,4.231,4.231H61v-2.821Z" transform="translate(-42.664 -287.845)"/></g><g transform="translate(0 22.677)"><path class="a" d="M44.717,205.178,10.466,170.927a1.41,1.41,0,0,0-1.994,0L.413,178.986a1.41,1.41,0,0,0,0,1.994l34.251,34.251a1.41,1.41,0,0,0,1.994,0l8.058-8.059A1.41,1.41,0,0,0,44.717,205.178Zm-9.056,7.061L3.4,179.983l6.064-6.064,32.257,32.257Z" transform="translate(0 -170.514)"/></g><g transform="translate(40.899 53.704)"><path class="a" d="M330.486,405.179H309.331V408h15.513v7.052a1.41,1.41,0,0,0,1.41,1.41h4.231a5.641,5.641,0,1,0,0-11.282Zm0,8.462h-2.821V408h2.821a2.821,2.821,0,0,1,0,5.641Z" transform="translate(-309.331 -405.179)"/></g><g transform="translate(55.002 11.395)"><path class="a" d="M423.049,85.179H416V88h7.052a2.821,2.821,0,0,1,2.821,2.821V133.13h2.821V90.82A5.641,5.641,0,0,0,423.049,85.179Z" transform="translate(-415.998 -85.179)"/></g><g transform="translate(21.568 40.014)"><g transform="translate(0 0)"><rect class="a" width="5.984" height="2.821" transform="translate(0 4.231) rotate(-45)"/></g></g><g transform="translate(15.927 34.373)"><g transform="translate(0 0)"><rect class="a" width="5.984" height="2.821" transform="translate(0 4.231) rotate(-45)"/></g></g><g transform="translate(27.206 45.655)"><g transform="translate(0 0)"><rect class="a" width="5.984" height="2.821" transform="translate(0 4.231) rotate(-45)"/></g></g><g transform="translate(32.85 51.299)"><g transform="translate(0 0)"><rect class="a" width="5.984" height="2.821" transform="translate(0 4.231) rotate(-45)"/></g></g><g transform="translate(10.282 28.731)"><g transform="translate(0 0)"><rect class="a" width="5.984" height="2.821" transform="translate(0 4.231) rotate(-45)"/></g></g><g transform="translate(31.131 0.153)"><g transform="translate(0 0)"><path class="a" d="M265.157,3.282l-1.949-1.949a4.268,4.268,0,0,0-5.894,0L235.869,22.779a1.41,1.41,0,0,0,0,1.994l5.849,5.849a1.41,1.41,0,0,0,1.994,0L265.157,9.176l0,0A4.166,4.166,0,0,0,265.157,3.282Zm-1.993,3.9L242.715,27.63l-3.854-3.854L259.31,3.328a1.378,1.378,0,0,1,1.9,0l1.95,1.948h0A1.347,1.347,0,0,1,263.164,7.181Z" transform="translate(-235.456 -0.153)"/></g></g><g transform="translate(28.206 23.33)"><path class="a" d="M223.06,180.408l-6.087,2.032,2.032-6.1-2.68-.893-2.925,8.774a1.41,1.41,0,0,0,1.338,1.856,1.433,1.433,0,0,0,.44-.068l8.774-2.925Z" transform="translate(-213.328 -175.451)"/></g><g transform="translate(49.089 5.231)"><rect class="a" width="2.821" height="8.271" transform="translate(0 1.994) rotate(-45)"/></g><g transform="translate(29.616 31.139)"><rect class="a" width="21.155" height="2.821"/></g><g transform="translate(53.592 31.139)"><rect class="a" width="2.821" height="2.821"/></g><g transform="translate(59.233 31.139)"><rect class="a" width="2.821" height="2.821"/></g></g></svg>