<svg xmlns="http://www.w3.org/2000/svg" width="205" height="201" viewBox="0 0 205 201"><defs><style>.a,.f{fill:none;}.a{stroke:#ff4b11;stroke-width:5px;}.b{fill:#ff4b11;font-size:31px;font-family:Poppins-ExtraBold, Poppins;font-weight:800;letter-spacing:0.06em;}.c{fill:#015296;}.d{fill:#fff;}.e{stroke:none;}</style></defs><g transform="translate(-960 -3510)"><g transform="translate(11 9)"><g class="a" transform="translate(949 3607)"><circle class="e" cx="47.5" cy="47.5" r="47.5"/><circle class="f" cx="47.5" cy="47.5" r="45"/></g><text class="b" transform="translate(991 3666)"><tspan x="0" y="0">1</tspan></text></g><circle class="c" cx="79.5" cy="79.5" r="79.5" transform="translate(1006 3510)"/><g transform="translate(1051.929 3556)"><path class="d" d="M62.29,41.283V12.173A6.771,6.771,0,0,0,55.527,5.41H51.469V4.058a4.058,4.058,0,1,0-8.116,0V5.41H19.006V4.058a4.058,4.058,0,0,0-8.116,0V5.41H6.833A6.771,6.771,0,0,0,.07,12.173V50.046a6.771,6.771,0,0,0,6.763,6.763H38.519A14.879,14.879,0,1,0,62.29,41.283ZM52.822,64.925A12.173,12.173,0,1,1,65,52.752,12.174,12.174,0,0,1,52.822,64.925ZM2.775,12.173A4.058,4.058,0,0,1,6.833,8.116h4.058V9.468a4.058,4.058,0,0,0,8.116,0V8.116H43.353V9.468a4.058,4.058,0,1,0,8.116,0V8.116h4.058a4.058,4.058,0,0,1,4.058,4.058v4.058H2.775ZM14.949,2.705A1.353,1.353,0,0,1,16.3,4.058v5.41a1.353,1.353,0,0,1-2.705,0V4.058A1.353,1.353,0,0,1,14.949,2.705Zm32.463,0a1.353,1.353,0,0,1,1.353,1.353v5.41a1.353,1.353,0,0,1-2.705,0V4.058A1.353,1.353,0,0,1,47.411,2.705ZM2.775,18.936H59.585V39.515a14.759,14.759,0,0,0-13.591.031,1.266,1.266,0,0,0,.065-.32v-5.41a1.353,1.353,0,0,0-1.353-1.353H39.3a1.353,1.353,0,0,0-1.353,1.353v5.41A1.353,1.353,0,0,0,39.3,40.578h5a14.864,14.864,0,0,0-6.358,12.173c0,.457.028.906.069,1.353H6.833a4.058,4.058,0,0,1-4.058-4.058ZM43.353,35.168v2.705H40.648V35.168Zm0,0"/><path class="d" d="M97.423,136.116h5.41a1.353,1.353,0,0,0,1.353-1.353v-5.41A1.353,1.353,0,0,0,102.833,128h-5.41a1.353,1.353,0,0,0-1.353,1.353v5.41A1.353,1.353,0,0,0,97.423,136.116Zm1.353-5.41h2.705v2.705H98.775Zm0,0" transform="translate(-79.769 -106.358)"/><path class="d" d="M161.423,136.116h5.41a1.353,1.353,0,0,0,1.353-1.353v-5.41A1.353,1.353,0,0,0,166.833,128h-5.41a1.353,1.353,0,0,0-1.353,1.353v5.41A1.353,1.353,0,0,0,161.423,136.116Zm1.353-5.41h2.705v2.705h-2.705Zm0,0" transform="translate(-132.948 -106.358)"/><path class="d" d="M225.423,136.116h5.41a1.353,1.353,0,0,0,1.353-1.353v-5.41A1.353,1.353,0,0,0,230.833,128h-5.41a1.353,1.353,0,0,0-1.353,1.353v5.41A1.353,1.353,0,0,0,225.423,136.116Zm1.353-5.41h2.705v2.705h-2.705Zm0,0" transform="translate(-186.127 -106.358)"/><path class="d" d="M289.423,136.116h5.41a1.353,1.353,0,0,0,1.353-1.353v-5.41A1.353,1.353,0,0,0,294.833,128h-5.41a1.353,1.353,0,0,0-1.353,1.353v5.41A1.353,1.353,0,0,0,289.423,136.116Zm1.353-5.41h2.705v2.705h-2.705Zm0,0" transform="translate(-239.306 -106.358)"/><path class="d" d="M33.423,200.116h5.41a1.353,1.353,0,0,0,1.353-1.353v-5.41A1.353,1.353,0,0,0,38.833,192h-5.41a1.353,1.353,0,0,0-1.353,1.353v5.41a1.353,1.353,0,0,0,1.353,1.353Zm1.353-5.41h2.705v2.705H34.776Zm0,0" transform="translate(-26.59 -159.537)"/><path class="d" d="M97.423,200.116h5.41a1.353,1.353,0,0,0,1.353-1.353v-5.41A1.353,1.353,0,0,0,102.833,192h-5.41a1.353,1.353,0,0,0-1.353,1.353v5.41A1.353,1.353,0,0,0,97.423,200.116Zm1.353-5.41h2.705v2.705H98.775Zm0,0" transform="translate(-79.769 -159.537)"/><path class="d" d="M161.423,200.116h5.41a1.353,1.353,0,0,0,1.353-1.353v-5.41A1.353,1.353,0,0,0,166.833,192h-5.41a1.353,1.353,0,0,0-1.353,1.353v5.41A1.353,1.353,0,0,0,161.423,200.116Zm1.353-5.41h2.705v2.705h-2.705Zm0,0" transform="translate(-132.948 -159.537)"/><path class="d" d="M161.423,264.116h5.41a1.353,1.353,0,0,0,1.353-1.353v-5.41A1.353,1.353,0,0,0,166.833,256h-5.41a1.353,1.353,0,0,0-1.353,1.353v5.41A1.353,1.353,0,0,0,161.423,264.116Zm1.353-5.41h2.705v2.705h-2.705Zm0,0" transform="translate(-132.948 -212.717)"/><path class="d" d="M33.423,264.116h5.41a1.353,1.353,0,0,0,1.353-1.353v-5.41A1.353,1.353,0,0,0,38.833,256h-5.41a1.353,1.353,0,0,0-1.353,1.353v5.41a1.353,1.353,0,0,0,1.353,1.353Zm1.353-5.41h2.705v2.705H34.776Zm0,0" transform="translate(-26.59 -212.717)"/><path class="d" d="M97.423,264.116h5.41a1.353,1.353,0,0,0,1.353-1.353v-5.41A1.353,1.353,0,0,0,102.833,256h-5.41a1.353,1.353,0,0,0-1.353,1.353v5.41A1.353,1.353,0,0,0,97.423,264.116Zm1.353-5.41h2.705v2.705H98.775Zm0,0" transform="translate(-79.769 -212.717)"/><path class="d" d="M280.032,274.164a1.353,1.353,0,0,0-2.164-1.623l-7.3,9.739-4.329-3.246a1.352,1.352,0,1,0-1.623,2.164l5.41,4.058a1.353,1.353,0,0,0,1.894-.27Zm0,0" transform="translate(-219.365 -226.011)"/><path class="d" d="M150.949,64H137.423a1.353,1.353,0,0,0,0,2.705h13.526a1.353,1.353,0,0,0,0-2.705Zm0,0" transform="translate(-113.006 -53.179)"/></g></g></svg>