<svg xmlns="http://www.w3.org/2000/svg" width="67.654" height="67.654" viewBox="0 0 67.654 67.654"><defs><style>.a{fill:#ff4b11;}</style></defs><g transform="translate(0)"><g transform="translate(0 38.337)"><g transform="translate(0)"><path class="a" d="M15.068,286.71a7.828,7.828,0,0,0,2.973-5.69c0-7.456-4.293-9.021-7.893-9.021s-7.893,1.565-7.893,9.021a7.828,7.828,0,0,0,2.973,5.693A5.957,5.957,0,0,0,0,292.635v8.682H2.255v-8.682a3.721,3.721,0,0,1,3.721-3.721h2.5L6.845,293a1.128,1.128,0,0,0,.25,1.217l2.255,2.255a1.128,1.128,0,0,0,1.594,0l2.255-2.255a1.128,1.128,0,0,0,.25-1.217l-1.637-4.091H14.32a3.721,3.721,0,0,1,3.721,3.721v8.682H20.3v-8.682A5.957,5.957,0,0,0,15.068,286.71Zm-10.5-6.883c.306-3.778,2.084-5.572,5.579-5.572,3.2,0,4.961,1.513,5.465,4.67l-3.757-2.255a1.127,1.127,0,0,0-1.65.61C9.636,278.992,6.557,279.639,4.569,279.828Zm5.579,14.254-.933-.932.933-2.327.933,2.331Zm0-7.423a7.1,7.1,0,0,1-5.481-4.569c1.93-.159,5.412-.744,7.036-2.88l4.031,2.419C15.281,284.389,11.879,286.658,10.148,286.658Z" transform="translate(0 -272)"/></g></g><g transform="translate(4.51 63.144)"><rect class="a" width="2.255" height="4.51"/></g><g transform="translate(13.531 63.144)"><rect class="a" width="2.255" height="4.51"/></g><g transform="translate(23.679 38.337)"><path class="a" d="M183.068,286.71a7.828,7.828,0,0,0,2.973-5.69c0-7.456-4.293-9.021-7.893-9.021s-7.893,1.565-7.893,9.021a7.828,7.828,0,0,0,2.973,5.693A5.957,5.957,0,0,0,168,292.635v8.682h2.255v-8.682a3.721,3.721,0,0,1,3.721-3.721h2.5L174.843,293a1.128,1.128,0,0,0,.25,1.217l2.255,2.255a1.128,1.128,0,0,0,1.594,0l2.255-2.255a1.128,1.128,0,0,0,.25-1.217l-1.635-4.091h2.507a3.721,3.721,0,0,1,3.721,3.721v8.682H188.3v-8.682A5.957,5.957,0,0,0,183.068,286.71Zm-10.5-6.883c.306-3.778,2.084-5.572,5.579-5.572,3.2,0,4.961,1.513,5.465,4.67l-3.757-2.255a1.127,1.127,0,0,0-1.65.61C177.636,278.992,174.557,279.639,172.569,279.828Zm5.579,14.254-.932-.932.932-2.327.932,2.331Zm0-7.423a7.1,7.1,0,0,1-5.481-4.569c1.93-.159,5.412-.744,7.036-2.88l4.031,2.419C183.281,284.389,179.879,286.658,178.148,286.658Z" transform="translate(-168 -272)"/></g><g transform="translate(28.189 63.144)"><rect class="a" width="2.255" height="4.51"/></g><g transform="translate(37.21 63.144)"><rect class="a" width="2.255" height="4.51"/></g><g transform="translate(47.358 38.337)"><path class="a" d="M353.634,287.663a5.96,5.96,0,0,0-2.566-.949,7.828,7.828,0,0,0,2.973-5.693c0-7.456-4.293-9.021-7.893-9.021s-7.893,1.565-7.893,9.021a7.828,7.828,0,0,0,2.973,5.693A5.957,5.957,0,0,0,336,292.635v8.682h2.255v-8.682a3.721,3.721,0,0,1,3.721-3.721h2.5L342.843,293a1.128,1.128,0,0,0,.25,1.217l2.255,2.255a1.128,1.128,0,0,0,1.594,0l2.255-2.255a1.128,1.128,0,0,0,.25-1.217l-1.635-4.091h2.507a3.721,3.721,0,0,1,3.721,3.721v8.682H356.3v-8.682A5.968,5.968,0,0,0,353.634,287.663Zm-13.065-7.835c.306-3.778,2.084-5.572,5.579-5.572,3.2,0,4.961,1.513,5.465,4.67l-3.757-2.255a1.127,1.127,0,0,0-1.65.61C345.636,278.992,342.557,279.639,340.569,279.828Zm5.579,14.257-.932-.933.932-2.331.932,2.331Zm0-7.426a7.1,7.1,0,0,1-5.481-4.569c1.93-.159,5.412-.744,7.036-2.88l4.031,2.419C351.281,284.389,347.879,286.658,346.148,286.658Z" transform="translate(-336 -272)"/></g><g transform="translate(51.868 63.144)"><rect class="a" width="2.255" height="4.51"/></g><g transform="translate(60.889 63.144)"><rect class="a" width="2.255" height="4.51"/></g><g transform="translate(0 3.383)"><path class="a" d="M64.272,31.893H46.23a3.383,3.383,0,0,0-3.383,3.383V36.4H33.827V27.383A3.383,3.383,0,0,0,30.444,24H3.383A3.383,3.383,0,0,0,0,27.383V40.914A3.383,3.383,0,0,0,3.383,44.3H5.863l3.421,4.1a1.128,1.128,0,0,0,1.732,0l3.417-4.1h4.736v4.51a3.383,3.383,0,0,0,3.383,3.383h6.991l3.421,4.1a1.128,1.128,0,0,0,1.732,0l3.417-4.1H45.1a3.383,3.383,0,0,0,3.383-3.383V47.679h5.863l3.421,4.1a1.128,1.128,0,0,0,1.732,0l3.417-4.1h1.353A3.383,3.383,0,0,0,67.654,44.3V35.276A3.383,3.383,0,0,0,64.272,31.893ZM13.906,42.041a1.128,1.128,0,0,0-.866.406l-2.892,3.471L7.256,42.447a1.128,1.128,0,0,0-.866-.406H3.383a1.128,1.128,0,0,1-1.128-1.128V27.383a1.128,1.128,0,0,1,1.128-1.128H30.444a1.128,1.128,0,0,1,1.128,1.128V40.914a1.128,1.128,0,0,1-1.128,1.128ZM46.23,48.807A1.128,1.128,0,0,1,45.1,49.934H37.585a1.128,1.128,0,0,0-.866.406l-2.892,3.471L30.935,50.34a1.128,1.128,0,0,0-.866-.406H22.551a1.128,1.128,0,0,1-1.128-1.128V44.3h9.021a3.383,3.383,0,0,0,3.383-3.383V38.658H45.1a1.128,1.128,0,0,1,1.128,1.128ZM65.4,44.3a1.128,1.128,0,0,1-1.128,1.128h-1.88a1.128,1.128,0,0,0-.866.406L58.634,49.3,55.742,45.83a1.128,1.128,0,0,0-.866-.406h-6.39V39.786A3.383,3.383,0,0,0,45.1,36.4V35.276a1.128,1.128,0,0,1,1.128-1.128H64.272A1.128,1.128,0,0,1,65.4,35.276Z" transform="translate(0 -24)"/></g><g transform="translate(4.51 7.893)"><rect class="a" width="2.255" height="2.255"/></g><g transform="translate(9.021 7.893)"><rect class="a" width="2.255" height="2.255"/></g><g transform="translate(13.531 7.893)"><rect class="a" width="2.255" height="2.255"/></g><g transform="translate(36.082 20.296)"><rect class="a" width="2.255" height="2.255"/></g><g transform="translate(40.593 20.296)"><rect class="a" width="2.255" height="2.255"/></g><g transform="translate(51.868 15.786)"><rect class="a" width="2.255" height="2.255"/></g><g transform="translate(56.379 15.786)"><rect class="a" width="2.255" height="2.255"/></g><g transform="translate(60.889 15.786)"><rect class="a" width="2.255" height="2.255"/></g><g transform="translate(39.465)"><path class="a" d="M280,0V2.255a6.773,6.773,0,0,1,6.765,6.765h2.255A9.031,9.031,0,0,0,280,0Z" transform="translate(-280)"/></g><g transform="translate(13.531 29.317)"><path class="a" d="M98.255,208H96a9.031,9.031,0,0,0,9.021,9.021v-2.255A6.773,6.773,0,0,1,98.255,208Z" transform="translate(-96 -208)"/></g></g></svg>